PathFileType	4	(X/Y/Z)	c:/Users/goper/Files/vsCode/490R/osim_files/C15/C15_SSWS_04.trc
DataRate	CameraRate	NumFrames	NumMarkers	Units                	OrigDataRate	OrigDataStartFrame	OrigNumFrames
250.00	250.00	4	36	mm	250.0	1535	2455
                Frame#	Time	LPSIS			LASIS			LTH1			LTH2			LTH3			LTH4			LLFE			LMFE			LSH1			LSH2			LSH3			LSH4			LLMAL			LMMAL			LCAL			LMTP5			LTOE			LMTP1			RPSIS			RASIS			RTH1			RTH2			RTH3			RTH4			RLFE			RMFE			RSH1			RSH2			RSH3			RSH4			RLMAL			RMMAL			RCAL			RMTP1			RTOE			RMTP5		
		X1	Y1	Z1	X2	Y2	Z2	X3	Y3	Z3	X4	Y4	Z4	X5	Y5	Z5	X6	Y6	Z6	X7	Y7	Z7	X8	Y8	Z8	X9	Y9	Z9	X10	Y10	Z10	X11	Y11	Z11	X12	Y12	Z12	X13	Y13	Z13	X14	Y14	Z14	X15	Y15	Z15	X16	Y16	Z16	X17	Y17	Z17	X18	Y18	Z18	X19	Y19	Z19	X20	Y20	Z20	X21	Y21	Z21	X22	Y22	Z22	X23	Y23	Z23	X24	Y24	Z24	X25	Y25	Z25	X26	Y26	Z26	X27	Y27	Z27	X28	Y28	Z28	X29	Y29	Z29	X30	Y30	Z30	X31	Y31	Z31	X32	Y32	Z32	X33	Y33	Z33	X34	Y34	Z34	X35	Y35	Z35	X36	Y36	Z36

1535	6.13600	-963.30951	1015.32172	294.07791	-1132.74475	996.38782	352.15100	-1155.38440	613.53308	430.14813	-1170.91028	570.76788	417.02240	-1201.37231	637.15125	429.60492	-1217.10278	594.77020	421.97214	-1212.48364	506.79190	395.15961	-1232.80640	491.48410	276.13864	-1176.40625	388.60657	402.31024	-1187.71045	345.24469	408.73801	-1235.94080	400.97473	414.03415	-1239.81006	356.65646	419.62500	-1294.52991	95.89075	365.68527	-1325.14624	132.74921	283.93939	-1255.27332	57.97799	309.54541	-1423.49487	77.53558	404.51358	-1477.90991	126.42294	357.31476	-1458.29224	90.84154	294.25443	-962.59021	1019.74689	172.76633	-1116.75842	993.13348	104.40524	-1016.73212	627.86157	67.75164	-1012.78992	583.11469	80.03177	-1075.76050	620.75031	83.48688	-1063.47693	574.78644	90.27156	-1002.72406	487.67932	108.98895	-983.09039	479.58856	226.10497	-896.88977	399.30579	95.83642	-887.69171	356.59238	94.94532	-956.94482	378.61334	96.76718	-937.88104	340.06860	94.21088	-850.79016	97.54557	172.96762	-882.44580	119.59634	258.67834	-784.40131	75.57415	219.07687	-982.47699	39.89147	262.40402	-1018.25360	55.96571	210.09177	-957.05493	33.94761	141.40224
1536	6.14000	-967.78345	1014.59344	294.81992	-1137.00793	995.77332	352.08783	-1158.34143	612.45667	430.15445	-1173.75647	569.77612	417.10687	-1204.41821	635.90155	429.94977	-1219.81030	593.58392	422.43588	-1215.74817	505.76352	394.96002	-1235.93372	490.52475	275.73743	-1180.55981	387.05908	401.72113	-1193.39587	343.87537	408.30576	-1240.77466	400.35684	413.48895	-1245.34167	356.07651	418.98785	-1303.83020	96.05677	364.79474	-1333.63501	133.65681	283.02689	-1265.04138	57.53396	308.66495	-1433.53064	79.49781	403.00131	-1486.74902	129.59024	355.87155	-1467.50769	94.03902	292.65829	-966.86444	1018.98584	173.58118	-1120.34924	992.72479	104.45615	-1019.07983	627.67310	67.73344	-1015.05188	582.91370	80.00419	-1078.16589	620.33496	83.19154	-1065.79297	574.42242	89.96996	-1004.83948	487.45883	108.93987	-985.63074	479.30408	226.06007	-898.54645	399.55997	95.96906	-889.20575	356.87482	95.05783	-958.39966	378.65128	96.84259	-939.22113	340.12833	94.18051	-851.13574	97.90204	172.95932	-882.89923	119.87463	258.65012	-784.63763	76.05677	219.07013	-982.59943	39.93671	262.34708	-1018.31244	55.98336	210.05936	-957.01874	33.93367	141.41106
1537	6.14400	-971.79285	1013.98425	295.39456	-1141.33533	995.11902	352.06314	-1161.20935	611.43481	430.09116	-1176.79346	568.43842	416.46829	-1207.39929	634.69489	430.29028	-1222.90784	592.22864	422.74512	-1218.95203	504.76508	394.80002	-1239.06824	489.65955	275.29770	-1186.32300	385.64249	401.22641	-1199.02124	342.90436	407.84747	-1245.49756	399.72882	412.95135	-1250.53845	355.48477	418.45193	-1312.79419	96.33335	363.96741	-1341.62585	134.47464	282.06805	-1274.52905	57.14938	307.83124	-1443.05225	81.40202	401.46121	-1495.14050	132.60794	354.24844	-1476.21667	97.17220	290.99344	-970.59332	1018.42566	174.14186	-1123.76404	992.29175	104.46004	-1021.55371	627.45288	67.74260	-1017.32648	582.77130	79.91383	-1080.63586	619.92059	82.93658	-1068.16736	574.06610	89.66412	-1007.05493	487.18552	108.86679	-988.17175	479.02573	226.02437	-900.28992	399.82648	96.05465	-890.71545	357.20737	95.07942	-959.95898	378.52487	96.81921	-940.60291	340.15253	94.18903	-851.23517	98.36308	172.97319	-883.36737	119.92207	258.45419	-784.80493	76.57754	219.09070	-982.66553	39.93771	262.28833	-1018.31604	55.97986	210.01892	-957.01569	33.93093	141.36703
1538	6.14800	-975.95886	1013.33838	296.02441	-1145.65515	994.51001	352.04053	-1164.15649	610.43604	430.02026	-1179.52124	567.64185	416.95706	-1210.55798	633.46313	430.54666	-1225.95886	591.07123	422.96225	-1222.27429	503.73520	394.57101	-1242.52942	489.05481	275.01639	-1190.19910	384.46902	400.40240	-1204.11304	341.72089	407.59299	-1250.17102	399.14706	412.36929	-1255.83337	354.95529	417.81726	-1321.28149	96.55274	363.08087	-1349.23401	135.24832	281.12949	-1283.23987	56.82973	307.12509	-1452.03613	83.15254	399.79834	-1503.13074	135.40793	352.63065	-1484.39624	100.05146	289.23798	-974.25751	1017.84961	174.74963	-1127.26538	991.83014	104.44904	-1023.98401	627.22437	67.71807	-1019.69897	582.59827	79.86947	-1083.16223	619.50867	82.63781	-1070.55945	573.69128	89.40379	-1009.32642	486.90451	108.85741	-990.77838	478.68970	226.01764	-902.13837	400.04642	96.20106	-892.28723	357.49496	95.27206	-961.87122	378.39941	96.75655	-942.24829	340.18750	94.16693	-851.52325	98.79875	172.95500	-883.76270	120.22714	258.43686	-784.97479	77.21092	219.11497	-982.69824	39.96191	262.24329	-1018.30188	55.96919	209.95847	-956.99579	33.94500	141.37228
